<?xml version="1.0" standalone="no"?>
<!DOCTYPE svg PUBLIC "-//W3C//DTD SVG 20010904//EN"
 "http://www.w3.org/TR/2001/REC-SVG-20010904/DTD/svg10.dtd">
<svg version="1.0" xmlns="http://www.w3.org/2000/svg"
 width="260.000000pt" height="260.000000pt" viewBox="0 0 260.000000 260.000000"
 preserveAspectRatio="xMidYMid meet">
<metadata>
Created by potrace 1.14, written by Peter Selinger 2001-2017
</metadata>
<g transform="translate(0.000000,260.000000) scale(0.100000,-0.100000)"
fill="#000000" stroke="none">
<path d="M1685 2555 c-14 -13 -25 -36 -25 -50 0 -27 16 -66 32 -76 5 -3 -3
-26 -17 -50 -20 -35 -25 -58 -25 -111 l0 -68 -237 0 c-211 0 -243 -3 -278 -19
-46 -22 -299 -274 -310 -309 -17 -57 17 -118 77 -141 53 -20 80 -4 204 120
112 112 121 119 158 119 l40 0 -81 -82 c-51 -53 -85 -97 -93 -122 -17 -52 -8
-130 19 -167 20 -27 21 -38 19 -181 l-3 -153 -205 -117 c-145 -82 -212 -127
-228 -150 -12 -17 -24 -34 -26 -36 -7 -6 -379 210 -408 236 -15 14 -30 39 -33
56 -13 64 -16 67 -43 64 -20 -2 -28 -10 -30 -27 -5 -36 24 -104 61 -138 17
-17 460 -277 982 -579 l950 -548 65 -4 c78 -3 115 12 115 48 0 27 -2 27 -93
14 -42 -6 -53 -1 -326 156 l-283 163 10 27 c9 24 4 38 -42 119 l-53 92 108
187 c150 258 174 307 174 354 0 71 -25 107 -190 273 l-160 160 115 115 115
115 57 -57 c91 -88 91 -88 330 -88 228 0 238 2 268 60 21 40 19 72 -8 111 -33
49 -70 58 -247 58 l-156 1 -54 55 -54 55 31 0 c71 0 157 60 192 135 70 150
-40 324 -206 325 -41 0 -53 4 -53 15 0 32 -47 65 -90 65 -30 0 -47 -6 -65 -25z
m85 -40 c10 -12 10 -18 0 -29 -14 -18 -40 -10 -40 13 0 32 20 40 40 16z m188
-89 c15 -8 38 -26 51 -40 l24 -25 -29 -12 c-16 -6 -67 -24 -114 -41 -125 -44
-123 -43 -117 -90 3 -24 18 -56 38 -81 l33 -41 -44 25 c-154 85 -94 318 83
319 26 0 60 -6 75 -14z m23 -197 c33 -12 59 -28 59 -35 0 -25 -51 -54 -94 -54
-42 0 -75 19 -94 55 -10 18 -6 22 26 37 20 9 39 17 41 17 2 1 30 -9 62 -20z
m-556 -139 l-49 -50 -74 0 c-40 0 -83 -5 -95 -11 -12 -6 -58 -47 -102 -90
l-81 -79 -34 35 -34 35 84 86 c125 127 119 124 290 124 l144 0 -49 -50z m248
39 c12 -6 81 -69 153 -140 l131 -129 126 0 127 0 0 -50 0 -50 -136 0 c-79 0
-144 5 -157 11 -12 6 -72 61 -133 121 -77 76 -117 109 -130 106 -31 -6 -28
-38 8 -75 l33 -34 -122 -118 c-114 -110 -129 -130 -123 -171 1 -8 75 -89 165
-181 100 -101 166 -176 171 -193 13 -54 -4 -102 -101 -271 -53 -93 -104 -180
-111 -193 l-15 -22 -41 21 c-36 18 -42 19 -56 6 -20 -20 -10 -43 30 -67 28
-17 32 -24 29 -55 -2 -27 8 -54 44 -116 25 -44 45 -84 43 -90 -2 -5 -63 25
-135 67 -115 66 -133 80 -133 101 0 14 64 136 145 276 95 165 145 262 145 281
0 24 -35 64 -211 244 -124 126 -217 230 -226 250 -30 71 -17 91 170 281 95 95
186 179 202 187 37 16 79 18 108 3z m-366 -691 l63 -62 0 -102 c0 -127 -2
-130 -153 -217 -148 -87 -140 -85 -165 -43 -14 23 -29 36 -42 36 -31 0 -36
-29 -13 -69 14 -24 19 -47 16 -68 -4 -24 4 -48 31 -98 21 -36 32 -65 25 -65
-6 0 -71 34 -145 76 -137 78 -163 104 -135 138 6 7 100 64 209 126 108 62 205
120 215 128 15 13 17 34 17 149 0 73 3 133 7 133 4 0 36 -28 70 -62z m127
-504 c-76 -130 -146 -252 -154 -270 l-15 -34 -63 36 c-58 33 -63 39 -58 63 4
18 -6 48 -32 100 -20 41 -32 76 -27 78 6 2 73 40 150 86 171 101 195 129 203
237 l5 72 65 -65 65 -65 -139 -238z"/>
</g>
</svg>
